# xmcd CD database file
#
# Track frame offsets:
#	150
#	27051
#	47865
#	67776
#	92374
#	112239
#	135864
#	153925
#	175198
#	199424
#	221116
#	245728
#	267592
#	288080
#
# Disc length: 4321 seconds
#
# Revision: 0
# Processed by: cddbd v1.5.2PL0 Copyright (c) Steve Scherf et al.
# Submitted via: CDex 1.70beta2
#
DISCID=c710df0e
DTITLE=Various Artist - Psycho Sphera
DYEAR=2007
DGENRE=New Age
TTITLE0=Mysteria
TTITLE1=Solaris
TTITLE2=Meteora
TTITLE3=Omnis
TTITLE4=Aphridite
TTITLE5=Lotus
TTITLE6=Shamballa
TTITLE7=Trinity
TTITLE8=Apnea
TTITLE9=Pandora
TTITLE10=Nirvana
TTITLE11=Phaenomena
TTITLE12=Venus
TTITLE13=Exotica
EXTD=YEAR: 2007
EXTT0=
EXTT1=
EXTT2=
EXTT3=
EXTT4=
EXTT5=
EXTT6=
EXTT7=
EXTT8=
EXTT9=
EXTT10=
EXTT11=
EXTT12=
EXTT13=
PLAYORDER=
